<?xml version="1.0" encoding="UTF-8" standalone="no"?>
<!-- Created with Inkscape (http://www.inkscape.org/) -->

<svg
   xmlns:dc="http://purl.org/dc/elements/1.1/"
   xmlns:cc="http://creativecommons.org/ns#"
   xmlns:rdf="http://www.w3.org/1999/02/22-rdf-syntax-ns#"
   xmlns:svg="http://www.w3.org/2000/svg"
   xmlns="http://www.w3.org/2000/svg"
   xmlns:sodipodi="http://sodipodi.sourceforge.net/DTD/sodipodi-0.dtd"
   xmlns:inkscape="http://www.inkscape.org/namespaces/inkscape"
   width="744.09448819"
   height="1052.3622047"
   id="svg2"
   version="1.1"
   inkscape:version="0.48.3.1 r9886"
   sodipodi:docname="component.svg">
  <defs
     id="defs4">
    <marker
       inkscape:stockid="Arrow2Send"
       orient="auto"
       refY="0.0"
       refX="0.0"
       id="Arrow2Send"
       style="overflow:visible;">
      <path
         id="path3872"
         style="fill-rule:evenodd;stroke-width:0.62500000;stroke-linejoin:round;"
         d="M 8.7185878,4.0337352 L -2.2072895,0.016013256 L 8.7185884,-4.0017078 C 6.9730900,-1.6296469 6.9831476,1.6157441 8.7185878,4.0337352 z "
         transform="scale(0.3) rotate(180) translate(-2.3,0)" />
    </marker>
    <marker
       inkscape:stockid="Arrow2Mend"
       orient="auto"
       refY="0.0"
       refX="0.0"
       id="Arrow2Mend"
       style="overflow:visible;">
      <path
         id="path3866"
         style="fill-rule:evenodd;stroke-width:0.62500000;stroke-linejoin:round;"
         d="M 8.7185878,4.0337352 L -2.2072895,0.016013256 L 8.7185884,-4.0017078 C 6.9730900,-1.6296469 6.9831476,1.6157441 8.7185878,4.0337352 z "
         transform="scale(0.6) rotate(180) translate(0,0)" />
    </marker>
    <marker
       inkscape:stockid="Arrow2Lend"
       orient="auto"
       refY="0.0"
       refX="0.0"
       id="Arrow2Lend"
       style="overflow:visible;">
      <path
         id="path3860"
         style="fill-rule:evenodd;stroke-width:0.62500000;stroke-linejoin:round;"
         d="M 8.7185878,4.0337352 L -2.2072895,0.016013256 L 8.7185884,-4.0017078 C 6.9730900,-1.6296469 6.9831476,1.6157441 8.7185878,4.0337352 z "
         transform="scale(1.1) rotate(180) translate(1,0)" />
    </marker>
  </defs>
  <sodipodi:namedview
     id="base"
     pagecolor="#ffffff"
     bordercolor="#666666"
     borderopacity="1.0"
     inkscape:pageopacity="0.0"
     inkscape:pageshadow="2"
     inkscape:zoom="8"
     inkscape:cx="237.50421"
     inkscape:cy="883.80765"
     inkscape:document-units="px"
     inkscape:current-layer="layer1"
     showgrid="true"
     inkscape:snap-bbox="true"
     inkscape:window-width="1918"
     inkscape:window-height="1078"
     inkscape:window-x="0"
     inkscape:window-y="0"
     inkscape:window-maximized="0"
     gridtolerance="10">
    <inkscape:grid
       type="xygrid"
       id="grid3765"
       empspacing="5"
       visible="true"
       enabled="true"
       snapvisiblegridlinesonly="false"
       dotted="false"
       color="#6464d1"
       opacity="0.14509804" />
  </sodipodi:namedview>
  <metadata
     id="metadata7">
    <rdf:RDF>
      <cc:Work
         rdf:about="">
        <dc:format>image/svg+xml</dc:format>
        <dc:type
           rdf:resource="http://purl.org/dc/dcmitype/StillImage" />
        <dc:title></dc:title>
      </cc:Work>
    </rdf:RDF>
  </metadata>
  <g
     inkscape:label="Layer 1"
     inkscape:groupmode="layer"
     id="layer1">
    <rect
       style="fill:#10a0f3;fill-opacity:1;stroke:none"
       id="rect3787"
       width="25"
       height="35"
       x="285"
       y="167.36218" />
    <rect
       style="fill:#86e5aa;fill-opacity:1;stroke:#000000;stroke-opacity:1;opacity:0.40000000000000002;stroke-width:0.5;stroke-miterlimit:4;stroke-dasharray:1,0.5;stroke-dashoffset:0"
       id="rect5585"
       width="41"
       height="36"
       x="202"
       y="162.36218" />
    <rect
       style="opacity:0.40000000000000002;fill:#86e5aa;fill-opacity:1;stroke:#000000;stroke-width:0.5;stroke-linecap:butt;stroke-miterlimit:4;stroke-opacity:1;stroke-dasharray:1,0.5;stroke-dashoffset:0"
       id="rect5583"
       width="21.773514"
       height="23.023514"
       x="211.73825"
       y="190.35043" />
    <text
       sodipodi:linespacing="125%"
       id="text3793"
       y="157.36218"
       x="305"
       style="font-size:40px;font-style:normal;font-weight:normal;line-height:125%;letter-spacing:0px;word-spacing:0px;fill:#000000;fill-opacity:1;stroke:none;font-family:Sans"
       xml:space="preserve"><tspan
         style="font-size:10px;font-style:normal;font-variant:normal;font-weight:500;font-stretch:normal;text-align:start;line-height:125%;writing-mode:lr-tb;text-anchor:start;font-family:Inconsolata;-inkscape-font-specification:Inconsolata Medium"
         y="157.36218"
         x="305"
         id="tspan3795"
         sodipodi:role="line" /></text>
    <path
       style="fill:none;stroke:#000000;stroke-width:1px;stroke-linecap:butt;stroke-linejoin:miter;stroke-opacity:1;marker-end:url(#Arrow2Send)"
       d="m 337.75151,184.89251 c 0,0 2.24849,0 5.24849,0 3,0 5,-2 5,-5 0,-3 0,-24.53033 0,-27.53033 0,-3 -2,-5 -5,-5 -3,0 -150,0 -153,0 -3,0 -5,2 -5,5 0,3 0,14.22183 0,17.22183 0,3 2,5 5,5 3,0 1.65771,0 1.65771,0 l 3.34229,0"
       id="path4714"
       inkscape:connector-curvature="0"
       sodipodi:nodetypes="czzzzzzzzcc" />
    <rect
       style="fill:#dd450c;fill-opacity:1;stroke:none"
       id="rect4985"
       width="35"
       height="20.588236"
       x="120"
       y="82.068062" />
    <text
       sodipodi:linespacing="125%"
       id="text4987"
       y="87.134499"
       x="123.47273"
       style="font-size:34.65577316px;font-style:normal;font-weight:normal;line-height:125%;letter-spacing:0px;word-spacing:0px;fill:#000000;fill-opacity:1;stroke:none;font-family:Sans"
       xml:space="preserve"
       transform="scale(0.97613775,1.0244456)"><tspan
         style="font-size:8.66394329px;font-style:normal;font-variant:normal;font-weight:500;font-stretch:normal;text-align:start;line-height:125%;writing-mode:lr-tb;text-anchor:start;font-family:Inconsolata;-inkscape-font-specification:Inconsolata Medium"
         y="87.134499"
         x="123.47273"
         sodipodi:role="line"
         id="tspan4991">Renderer</tspan></text>
    <text
       xml:space="preserve"
       style="font-size:3px;font-style:normal;font-variant:normal;font-weight:500;font-stretch:normal;text-align:start;line-height:125%;letter-spacing:0px;word-spacing:0px;writing-mode:lr-tb;text-anchor:start;fill:#000000;fill-opacity:1;stroke:none;font-family:Inconsolata;-inkscape-font-specification:Inconsolata Medium"
       x="215.52887"
       y="57.362183"
       id="text5039"
       sodipodi:linespacing="125%"><tspan
         sodipodi:role="line"
         id="tspan5041"
         x="215.52887"
         y="57.362183" /></text>
    <g
       id="g5332"
       transform="translate(-0.529999,0)">
      <g
         id="g5126"
         transform="translate(-9.470001,123)">
        <path
           sodipodi:nodetypes="ccccccccccccc"
           inkscape:connector-curvature="0"
           id="path5128"
           d="m 215,47.362184 0,1 -2,0 0,3 2,0 0,1 15,0 0,-1 2,0 0,-3 -2,0 0,-1 z"
           style="fill:#0cdd57;fill-opacity:1;stroke:none" />
        <text
           sodipodi:linespacing="125%"
           id="text5130"
           y="50.798988"
           x="219.47"
           style="font-size:3px;font-style:normal;font-variant:normal;font-weight:500;font-stretch:normal;text-align:start;line-height:125%;letter-spacing:0px;word-spacing:0px;writing-mode:lr-tb;text-anchor:start;fill:#000000;fill-opacity:1;stroke:none;font-family:Inconsolata;-inkscape-font-specification:Inconsolata Medium"
           xml:space="preserve"><tspan
             y="50.798988"
             x="219.47"
             id="tspan5132"
             sodipodi:role="line">mdlA</tspan></text>
        <path
           style="fill:#0cdd57;fill-opacity:1;stroke:none"
           d="m 215,51.362184 0,1 -2,0 0,3 2,0 0,1 15,0 0,-1 2,0 0,-3 -2,0 0,-1 z"
           id="path5134"
           inkscape:connector-curvature="0"
           sodipodi:nodetypes="ccccccccccccc" />
        <text
           xml:space="preserve"
           style="font-size:3px;font-style:normal;font-variant:normal;font-weight:500;font-stretch:normal;text-align:start;line-height:125%;letter-spacing:0px;word-spacing:0px;writing-mode:lr-tb;text-anchor:start;fill:#000000;fill-opacity:1;stroke:none;font-family:Inconsolata;-inkscape-font-specification:Inconsolata Medium"
           x="219.5105"
           y="54.561989"
           id="text5136"
           sodipodi:linespacing="125%"><tspan
             sodipodi:role="line"
             id="tspan5138"
             x="219.5105"
             y="54.561989">mdlB</tspan></text>
        <rect
           y="44.362183"
           x="215"
           height="3"
           width="15"
           id="rect5140"
           style="fill:#0cdd57;fill-opacity:1;stroke:none" />
        <text
           xml:space="preserve"
           style="font-size:3px;font-style:normal;font-variant:normal;font-weight:500;font-stretch:normal;text-align:start;line-height:125%;letter-spacing:0px;word-spacing:0px;writing-mode:lr-tb;text-anchor:start;fill:#000000;fill-opacity:1;stroke:none;font-family:Inconsolata;-inkscape-font-specification:Inconsolata Medium"
           x="216.524"
           y="47.357182"
           id="text5142"
           sodipodi:linespacing="125%"><tspan
             sodipodi:role="line"
             id="tspan5144"
             x="216.524"
             y="47.357182">ModelEvt</tspan></text>
      </g>
    </g>
    <text
       xml:space="preserve"
       style="font-size:20.38181686px;font-style:normal;font-weight:normal;line-height:125%;letter-spacing:0px;word-spacing:0px;fill:#000000;fill-opacity:1;stroke:none;font-family:Sans"
       x="285.28445"
       y="171.30664"
       id="text3789"
       sodipodi:linespacing="125%"><tspan
         sodipodi:role="line"
         id="tspan3791"
         x="285.28445"
         y="171.30664"
         style="font-size:5.09545422px;font-style:normal;font-variant:normal;font-weight:500;font-stretch:normal;text-align:start;line-height:125%;writing-mode:lr-tb;text-anchor:start;font-family:Inconsolata;-inkscape-font-specification:Inconsolata Medium">Processor</tspan></text>
    <path
       style="fill:none;stroke:#000000;stroke-width:1px;stroke-linecap:round;stroke-linejoin:miter;stroke-opacity:1;marker-end:url(#Arrow2Send)"
       d="m 293,186.87199 17,0"
       id="path3831"
       inkscape:connector-curvature="0"
       sodipodi:nodetypes="cc" />
    <path
       sodipodi:nodetypes="cc"
       inkscape:connector-curvature="0"
       id="path4653"
       d="m 293,182.87199 17,0"
       style="fill:none;stroke:#000000;stroke-width:1px;stroke-linecap:round;stroke-linejoin:miter;stroke-opacity:1;marker-end:url(#Arrow2Send)" />
    <path
       sodipodi:nodetypes="czsc"
       inkscape:connector-curvature="0"
       id="path4904"
       d="m 293,190.86699 c 0,0 1.4974,0 5,0 3.5026,0 5,0.96486 5,3.49519 0,2 0,18 0,18"
       style="fill:none;stroke:#000000;stroke-width:1px;stroke-linecap:round;stroke-linejoin:miter;stroke-opacity:1;marker-end:url(#Arrow2Send)" />
    <g
       id="g5043"
       transform="translate(99,133.005)">
      <path
         sodipodi:nodetypes="ccccccccccccc"
         inkscape:connector-curvature="0"
         id="rect5008"
         d="m 215,47.362184 0,1 -2,0 0,3 2,0 0,1 15,0 0,-1 2,0 0,-3 -2,0 0,-1 z"
         style="fill:#0cdd57;fill-opacity:1;stroke:none" />
      <text
         sodipodi:linespacing="125%"
         id="text5021"
         y="50.798988"
         x="219.47"
         style="font-size:3px;font-style:normal;font-variant:normal;font-weight:500;font-stretch:normal;text-align:start;line-height:125%;letter-spacing:0px;word-spacing:0px;writing-mode:lr-tb;text-anchor:start;fill:#000000;fill-opacity:1;stroke:none;font-family:Inconsolata;-inkscape-font-specification:Inconsolata Medium"
         xml:space="preserve"><tspan
           y="50.798988"
           x="219.47"
           id="tspan5023"
           sodipodi:role="line">mdlA</tspan></text>
      <path
         style="fill:#0cdd57;fill-opacity:1;stroke:none"
         d="m 215,51.362184 0,1 -2,0 0,3 2,0 0,1 15,0 0,-1 2,0 0,-3 -2,0 0,-1 z"
         id="path5025"
         inkscape:connector-curvature="0"
         sodipodi:nodetypes="ccccccccccccc" />
      <text
         xml:space="preserve"
         style="font-size:3px;font-style:normal;font-variant:normal;font-weight:500;font-stretch:normal;text-align:start;line-height:125%;letter-spacing:0px;word-spacing:0px;writing-mode:lr-tb;text-anchor:start;fill:#000000;fill-opacity:1;stroke:none;font-family:Inconsolata;-inkscape-font-specification:Inconsolata Medium"
         x="219.5105"
         y="54.561989"
         id="text5027"
         sodipodi:linespacing="125%"><tspan
           sodipodi:role="line"
           id="tspan5029"
           x="219.5105"
           y="54.561989">mdlB</tspan></text>
      <rect
         y="44.362183"
         x="215"
         height="3"
         width="15"
         id="rect5031"
         style="fill:#0cdd57;fill-opacity:1;stroke:none" />
      <text
         xml:space="preserve"
         style="font-size:3px;font-style:normal;font-variant:normal;font-weight:500;font-stretch:normal;text-align:start;line-height:125%;letter-spacing:0px;word-spacing:0px;writing-mode:lr-tb;text-anchor:start;fill:#000000;fill-opacity:1;stroke:none;font-family:Inconsolata;-inkscape-font-specification:Inconsolata Medium"
         x="216.524"
         y="47.357182"
         id="text5033"
         sodipodi:linespacing="125%"><tspan
           sodipodi:role="line"
           id="tspan5035"
           x="216.524"
           y="47.357182">ModelEvt</tspan></text>
    </g>
    <g
       id="g5695"
       transform="translate(2.583252,0)">
      <path
         sodipodi:nodetypes="ccccccccccccc"
         inkscape:connector-curvature="0"
         id="path5677"
         d="m 275,184.33593 0,1 -1.46754,0 0,3 1.46754,0 0,1 11.00651,0 0,-1 1.46754,0 0,-3 -1.46754,0 0,-1 z"
         style="fill:#dd450c;fill-opacity:1;stroke:none" />
      <path
         style="fill:#dd450c;fill-opacity:1;stroke:none"
         d="m 275,188.36218 0,1 -1.46754,0 0,3 1.46754,0 0,1 11.00651,0 0,-1 1.46754,0 0,-3 -1.46754,0 0,-1 z"
         id="path5693"
         inkscape:connector-curvature="0"
         sodipodi:nodetypes="ccccccccccccc" />
      <path
         style="fill:#dd450c;fill-opacity:1;stroke:none"
         d="m 275,180.36718 0,1 -1.46754,0 0,3 1.46754,0 0,1 11.00651,0 0,-1 1.46754,0 0,-3 -1.46754,0 0,-1 z"
         id="path5056"
         inkscape:connector-curvature="0"
         sodipodi:nodetypes="ccccccccccccc" />
      <text
         xml:space="preserve"
         style="font-size:3px;font-style:normal;font-variant:normal;font-weight:500;font-stretch:normal;text-align:start;line-height:125%;letter-spacing:0px;word-spacing:0px;writing-mode:lr-tb;text-anchor:start;fill:#000000;fill-opacity:1;stroke:none;font-family:Inconsolata;-inkscape-font-specification:Inconsolata Medium"
         x="277.37625"
         y="183.80399"
         id="text5058"
         sodipodi:linespacing="125%"><tspan
           sodipodi:role="line"
           id="tspan5060"
           x="277.37625"
           y="183.80399">mdlA</tspan></text>
      <text
         sodipodi:linespacing="125%"
         id="text5064"
         y="187.56699"
         x="277.41675"
         style="font-size:3px;font-style:normal;font-variant:normal;font-weight:500;font-stretch:normal;text-align:start;line-height:125%;letter-spacing:0px;word-spacing:0px;writing-mode:lr-tb;text-anchor:start;fill:#000000;fill-opacity:1;stroke:none;font-family:Inconsolata;-inkscape-font-specification:Inconsolata Medium"
         xml:space="preserve"><tspan
           y="187.56699"
           x="277.41675"
           id="tspan5066"
           sodipodi:role="line">mdlB</tspan></text>
      <rect
         style="fill:#dd450c;fill-opacity:1;stroke:none"
         id="rect5068"
         width="10.999998"
         height="3"
         x="275"
         y="177.36719" />
      <text
         sodipodi:linespacing="125%"
         id="text5070"
         y="180.36218"
         x="276.97775"
         style="font-size:3px;font-style:normal;font-variant:normal;font-weight:500;font-stretch:normal;text-align:start;line-height:125%;letter-spacing:0px;word-spacing:0px;writing-mode:lr-tb;text-anchor:start;fill:#000000;fill-opacity:1;stroke:none;font-family:Inconsolata;-inkscape-font-specification:Inconsolata Medium"
         xml:space="preserve"><tspan
           y="180.36218"
           x="276.97775"
           id="tspan5072"
           sodipodi:role="line">UIEvt</tspan></text>
      <text
         xml:space="preserve"
         style="font-size:3px;font-style:normal;font-variant:normal;font-weight:500;font-stretch:normal;text-align:start;line-height:125%;letter-spacing:0px;word-spacing:0px;writing-mode:lr-tb;text-anchor:start;fill:#000000;fill-opacity:1;stroke:none;font-family:Inconsolata;-inkscape-font-specification:Inconsolata Medium"
         x="277.41675"
         y="191.56198"
         id="text5107"
         sodipodi:linespacing="125%"><tspan
           sodipodi:role="line"
           id="tspan5109"
           x="277.41675"
           y="191.56198">mdlC</tspan></text>
    </g>
    <g
       transform="matrix(1.0558629,0,0,1.0558629,85.686569,-47.254849)"
       id="g5193">
      <path
         sodipodi:type="arc"
         style="fill:none;stroke:#000000;stroke-linecap:round;stroke-opacity:1"
         id="path5195"
         sodipodi:cx="189"
         sodipodi:cy="220.36218"
         sodipodi:rx="6"
         sodipodi:ry="6"
         d="m 189,226.36218 c -3.31371,0 -6,-2.68629 -6,-6 0,-3.31371 2.68629,-6 6,-6 0,0 0,0 0,0"
         sodipodi:start="1.5707963"
         sodipodi:end="4.712389"
         transform="matrix(0.66057352,0,0,0.80045156,51.478625,45.383983)"
         sodipodi:open="true" />
      <path
         sodipodi:type="arc"
         style="fill:#000000;fill-opacity:1;stroke:#000000;stroke-width:0.5;stroke-linecap:round;stroke-miterlimit:4;stroke-opacity:1;stroke-dasharray:none"
         id="path5197"
         sodipodi:cx="204"
         sodipodi:cy="218.36218"
         sodipodi:rx="3"
         sodipodi:ry="3"
         d="m 206.89778,217.58573 c 0.42882,1.60039 -0.52092,3.2454 -2.12132,3.67423 -1.6004,0.42883 -3.24541,-0.52092 -3.67424,-2.12132 -0.42882,-1.6004 0.52092,-3.24541 2.12132,-3.67423 1.6004,-0.42883 3.24541,0.52092 3.67424,2.12131"
         sodipodi:start="6.0213859"
         sodipodi:end="12.304571"
         sodipodi:open="true"
         transform="matrix(0.33035155,0,0,0.33035155,108.22499,149.63695)" />
    </g>
    <g
       id="g5199"
       transform="matrix(-1.0558629,0,0,1.0558629,422.99231,-29.491074)">
      <path
         sodipodi:open="true"
         transform="matrix(0.66057352,0,0,0.80045156,51.478625,45.383983)"
         sodipodi:end="4.712389"
         sodipodi:start="1.5707963"
         d="m 189,226.36218 c -3.31371,0 -6,-2.68629 -6,-6 0,-3.31371 2.68629,-6 6,-6 0,0 0,0 0,0"
         sodipodi:ry="6"
         sodipodi:rx="6"
         sodipodi:cy="220.36218"
         sodipodi:cx="189"
         id="path5201"
         style="fill:none;stroke:#000000;stroke-linecap:round;stroke-opacity:1"
         sodipodi:type="arc" />
      <path
         transform="matrix(0.33035155,0,0,0.33035155,108.22499,149.63695)"
         sodipodi:open="true"
         sodipodi:end="12.304571"
         sodipodi:start="6.0213859"
         d="m 206.89778,217.58573 c 0.42882,1.60039 -0.52092,3.2454 -2.12132,3.67423 -1.6004,0.42883 -3.24541,-0.52092 -3.67424,-2.12132 -0.42882,-1.6004 0.52092,-3.24541 2.12132,-3.67423 1.6004,-0.42883 3.24541,0.52092 3.67424,2.12131"
         sodipodi:ry="3"
         sodipodi:rx="3"
         sodipodi:cy="218.36218"
         sodipodi:cx="204"
         id="path5203"
         style="fill:#000000;fill-opacity:1;stroke:#000000;stroke-width:0.5;stroke-linecap:round;stroke-miterlimit:4;stroke-opacity:1;stroke-dasharray:none"
         sodipodi:type="arc" />
    </g>
    <path
       style="fill:none;stroke:#000000;stroke-width:1px;stroke-linecap:butt;stroke-linejoin:miter;stroke-opacity:1;marker-end:url(#Arrow2Send)"
       d="m 241,204.64053 c 0,0 9.01563,0.0221 11,0.0221 1.98438,0 3.03315,-0.80884 3,-2.78658 -0.0331,-1.97773 0,-10.04986 0,-12.07193 0,-2.02207 1.06066,-2.97227 3,-2.97227 1.93934,0 4,0 7,0 l 1,1e-5"
       id="path5205"
       inkscape:connector-curvature="0"
       sodipodi:nodetypes="czzzzcc" />
    <g
       id="g5549"
       transform="translate(-2.5277252,-19.948441)">
      <rect
         style="fill:#dd450c;fill-opacity:1;stroke:none"
         id="rect5267"
         width="19.94455"
         height="5"
         x="215.05545"
         y="222.36218" />
      <text
         sodipodi:linespacing="125%"
         id="text5269"
         y="226.31062"
         x="215.80701"
         style="font-size:4.68751192px;font-style:normal;font-variant:normal;font-weight:500;font-stretch:normal;text-align:start;line-height:125%;letter-spacing:0px;word-spacing:0px;writing-mode:lr-tb;text-anchor:start;fill:#000000;fill-opacity:1;stroke:none;font-family:Inconsolata;-inkscape-font-specification:Inconsolata Medium"
         xml:space="preserve"><tspan
           y="226.31062"
           x="215.80701"
           id="tspan5271"
           sodipodi:role="line">DOMEvent</tspan></text>
    </g>
    <g
       transform="matrix(-1.0558629,0,0,1.0558629,519.80815,-49.223774)"
       id="g5278">
      <path
         sodipodi:type="arc"
         style="fill:none;stroke:#000000;stroke-linecap:round;stroke-opacity:1"
         id="path5280"
         sodipodi:cx="189"
         sodipodi:cy="220.36218"
         sodipodi:rx="6"
         sodipodi:ry="6"
         d="m 189,226.36218 c -3.31371,0 -6,-2.68629 -6,-6 0,-3.31371 2.68629,-6 6,-6 0,0 0,0 0,0"
         sodipodi:start="1.5707963"
         sodipodi:end="4.712389"
         transform="matrix(0.66057352,0,0,0.80045156,51.478625,45.383983)"
         sodipodi:open="true" />
      <path
         sodipodi:type="arc"
         style="fill:#000000;fill-opacity:1;stroke:#000000;stroke-width:0.5;stroke-linecap:round;stroke-miterlimit:4;stroke-opacity:1;stroke-dasharray:none"
         id="path5282"
         sodipodi:cx="204"
         sodipodi:cy="218.36218"
         sodipodi:rx="3"
         sodipodi:ry="3"
         d="m 206.89778,217.58573 c 0.42882,1.60039 -0.52092,3.2454 -2.12132,3.67423 -1.6004,0.42883 -3.24541,-0.52092 -3.67424,-2.12132 -0.42882,-1.6004 0.52092,-3.24541 2.12132,-3.67423 1.6004,-0.42883 3.24541,0.52092 3.67424,2.12131"
         sodipodi:start="6.0213859"
         sodipodi:end="12.304571"
         sodipodi:open="true"
         transform="matrix(0.33035155,0,0,0.33035155,108.22499,149.63695)" />
    </g>
    <g
       id="g5284"
       transform="matrix(1.0558629,0,0,1.0558629,15.007691,-59.254841)">
      <path
         sodipodi:open="true"
         transform="matrix(0.66057352,0,0,0.80045156,51.478625,45.383983)"
         sodipodi:end="4.712389"
         sodipodi:start="1.5707963"
         d="m 189,226.36218 c -3.31371,0 -6,-2.68629 -6,-6 0,-3.31371 2.68629,-6 6,-6 0,0 0,0 0,0"
         sodipodi:ry="6"
         sodipodi:rx="6"
         sodipodi:cy="220.36218"
         sodipodi:cx="189"
         id="path5286"
         style="fill:none;stroke:#000000;stroke-linecap:round;stroke-opacity:1"
         sodipodi:type="arc" />
      <path
         transform="matrix(0.33035155,0,0,0.33035155,108.22499,149.63695)"
         sodipodi:open="true"
         sodipodi:end="12.304571"
         sodipodi:start="6.0213859"
         d="m 206.89778,217.58573 c 0.42882,1.60039 -0.52092,3.2454 -2.12132,3.67423 -1.6004,0.42883 -3.24541,-0.52092 -3.67424,-2.12132 -0.42882,-1.6004 0.52092,-3.24541 2.12132,-3.67423 1.6004,-0.42883 3.24541,0.52092 3.67424,2.12131"
         sodipodi:ry="3"
         sodipodi:rx="3"
         sodipodi:cy="218.36218"
         sodipodi:cx="204"
         id="path5288"
         style="fill:#000000;fill-opacity:1;stroke:#000000;stroke-width:0.5;stroke-linecap:round;stroke-miterlimit:4;stroke-opacity:1;stroke-dasharray:none"
         sodipodi:type="arc" />
    </g>
    <path
       style="fill:none;stroke:#000000;stroke-width:1px;stroke-linecap:butt;stroke-linejoin:miter;stroke-opacity:1"
       d="m 212.55806,179.36218 c 0,0 -0.0618,1.01033 0,2 0.0618,0.98967 0.96332,2 2,2 1.03668,0 4.14905,0 5.14905,0 2,0 2.84375,1 2.84375,3 0,2 0,3.76563 0,3.76563"
       id="path5314"
       inkscape:connector-curvature="0"
       sodipodi:nodetypes="czzszc" />
    <path
       sodipodi:nodetypes="czzszc"
       inkscape:connector-curvature="0"
       id="path5316"
       d="m 232.49946,172.32362 c 0,0 0.0618,8.04889 0,9.03856 -0.0618,0.98967 -0.96332,2 -2,2 -1.03668,0 -4.10485,0 -5.10485,0 -2,0 -2.84375,1 -2.84375,3 0,2 0,4.6875 0,4.6875"
       style="fill:none;stroke:#000000;stroke-width:1px;stroke-linecap:butt;stroke-linejoin:miter;stroke-opacity:1;marker-end:url(#Arrow2Send)" />
    <g
       id="g5557">
      <rect
         style="fill:#10a0f3;fill-opacity:1;stroke:none"
         id="rect5354"
         width="15"
         height="5.0000153"
         x="215"
         y="192.36217" />
      <text
         sodipodi:linespacing="125%"
         id="text5356"
         y="196.36218"
         x="215.58531"
         style="font-size:5.49332094px;font-style:normal;font-variant:normal;font-weight:500;font-stretch:normal;text-align:start;line-height:125%;letter-spacing:0px;word-spacing:0px;writing-mode:lr-tb;text-anchor:start;fill:#000000;fill-opacity:1;stroke:none;font-family:Inconsolata;-inkscape-font-specification:Inconsolata Medium"
         xml:space="preserve"><tspan
           style="font-size:5.49332094px;font-style:normal;font-variant:normal;font-weight:500;font-stretch:normal;text-align:start;line-height:125%;writing-mode:lr-tb;text-anchor:start;font-family:Inconsolata;-inkscape-font-specification:Inconsolata Medium"
           y="196.36218"
           x="215.58531"
           id="tspan5358"
           sodipodi:role="line">State</tspan></text>
    </g>
    <g
       id="g5562"
       transform="translate(10,-24.999985)">
      <rect
         y="192.36217"
         x="215"
         height="5.0000153"
         width="15"
         id="rect5564"
         style="fill:#10a0f3;fill-opacity:1;stroke:none" />
      <text
         xml:space="preserve"
         style="font-size:5.49332094px;font-style:normal;font-variant:normal;font-weight:500;font-stretch:normal;text-align:start;line-height:125%;letter-spacing:0px;word-spacing:0px;writing-mode:lr-tb;text-anchor:start;fill:#000000;fill-opacity:1;stroke:none;font-family:Inconsolata;-inkscape-font-specification:Inconsolata Medium"
         x="215.58531"
         y="196.36218"
         id="text5566"
         sodipodi:linespacing="125%"><tspan
           sodipodi:role="line"
           id="tspan5568"
           x="215.58531"
           y="196.36218"
           style="font-size:5.49332094px;font-style:normal;font-variant:normal;font-weight:500;font-stretch:normal;text-align:start;line-height:125%;writing-mode:lr-tb;text-anchor:start;font-family:Inconsolata;-inkscape-font-specification:Inconsolata Medium">State</tspan></text>
    </g>
  </g>
</svg>
